<svg xmlns="http://www.w3.org/2000/svg" width="40" height="30" viewBox="0 0 40 30">
  <g fill="none" transform="translate(0 6)">
    <path fill="#222" d="M26.7715294,0 C27.1738526,0 27.5,0.326719766 27.5,0.729749023 L27.5,16.770251 C27.5,17.1732802 27.1738526,17.5 26.7715294,17.5 L3.22847059,17.5 C2.82614739,17.5 2.5,17.1732802 2.5,16.770251 L2.5,0.729749023 C2.5,0.326719766 2.82614739,0 3.22847059,0 L26.7715294,0 Z"/>
    <path fill="#3E3E3E" d="M27.5 16.25L27.5 16.6973182C27.5 17.1406267 27.1739168 17.5 26.7716529 17.5L3.22835701 17.5C2.82609678 17.5 2.5 17.1405491 2.5 16.6973182L2.5 16.25 27.5 16.25zM15.0375.775C15.1065313.775 15.1625.71903125 15.1625.65 15.1625.580958333 15.1065313.525 15.0375.525 14.9684688.525 14.9125.580958333 14.9125.65 14.9125.71903125 14.9684688.775 15.0375.775L15.0375.775z"/>
    <path fill="#A9A9A9" d="M0,17.375 L30,17.375 C29.7650753,17.632125 28.9269957,17.87035 28.3261727,17.87035 L1.67377741,17.87035 C1.07300426,17.87035 0.23492466,17.632125 0,17.375 Z"/>
    <polygon fill="#D5D2CF" points="0 17.37 0 16.875 30 16.875 30 17.37"/>
    <path fill="#949494" d="M12.5,16.875 L17.5,16.875 C17.5,17.1763431 17.3318762,17.125 17.1698039,17.125 L12.8301961,17.125 C12.6681238,17.125 12.5,17.1763431 12.5,16.875 Z"/>
  </g>
</svg>
