<?xml version="1.0" encoding="UTF-8"?>
<svg width="40px" height="30px" viewBox="0 0 40 30" version="1.1" xmlns="http://www.w3.org/2000/svg" xmlns:xlink="http://www.w3.org/1999/xlink">
    <title>godot</title>
    <g id="godot" stroke="none" stroke-width="1" fill="none" fill-rule="evenodd">
        <g id="Godot_icon" transform="translate(0.000000, 0.000000)" fill-rule="nonzero">
            <path d="M29.8668253,25.2086682 C29.8668253,25.2086682 29.8204486,25.4932072 29.793336,25.490656 L24.6302501,24.9924812 C24.2194236,24.9528113 23.9003517,24.6251775 23.8715267,24.2134948 L23.7296853,22.1804816 L19.735293,21.8955144 L19.4635967,23.7380263 C19.4030929,24.1478539 19.0452072,24.4567943 18.6309559,24.4567943 L13.1816185,24.4567943 C12.76751,24.4567943 12.4096243,24.1478539 12.3491205,23.7380263 L12.0772815,21.8955144 L8.08288919,22.1804816 L7.94104773,24.2134948 C7.91222281,24.6253202 7.59315089,24.952954 7.18232439,24.9926239 L2.01666986,25.490656 C1.9899854,25.4932072 1.97043583,25.2083828 1.94375137,25.2083828 L1.93675919,24.0910602 L6.3115834,23.3855631 L6.45485183,21.3344273 C6.48381945,20.9191771 6.8188735,20.5834096 7.23440903,20.5535858 L12.7355457,20.1611673 C12.7563796,20.1597403 12.776928,20.1588841 12.7974765,20.1588841 C13.2108715,20.1588841 13.5681864,20.4679672 13.6286902,20.8777948 L13.9082349,22.7736756 L17.9044823,22.7736756 L18.1840269,20.8777948 C18.244388,20.4681099 18.602131,20.1590268 19.0160969,20.1590268 C19.0363599,20.1590268 19.056623,20.1597403 19.076458,20.1611673 L24.5783081,20.5535858 C24.993701,20.5834096 25.3288977,20.9191771 25.3578653,21.3344273 L25.5009911,23.3855631 L29.8739602,24.0941996 L29.8668253,25.2086682 Z" id="path80" fill="#FFFFFF" transform="translate(15.905360, 22.824770) scale(-1, 1) rotate(-180.000000) translate(-15.905360, -22.824770) "></path>
            <path d="M1.94368454,12.0416829 L1.94368454,5.26154734 L1.94368454,4.40036709 L1.94368454,3.61667166 C1.95909588,3.61652896 1.97450723,3.61595817 1.98977588,3.61453119 L7.15485961,3.11651643 C7.42541433,3.09040276 7.63746302,2.87264617 7.65629911,2.60152065 L7.81554968,0.32149778 L12.3210849,3.89727585e-15 L12.6314523,2.10436208 C12.671693,2.37719996 12.9057172,2.57940252 13.1816944,2.57940252 L18.6310318,2.57940252 C18.9068664,2.57940252 19.1408905,2.37719996 19.1811312,2.10436208 L19.4914986,3.89727585e-15 L23.9971765,0.32149778 L24.1562844,2.60152065 C24.1752632,2.87264617 24.3871692,3.09026007 24.6577239,3.11651643 L29.8208099,3.61453119 C29.8360785,3.61595817 29.8513472,3.61652896 29.8667585,3.61667166 L29.8667585,4.28892023 L29.868899,4.28963372 L29.868899,12.0416829 L29.8880204,12.0416829 C30.5722556,12.9149925 31.2054051,13.8352496 31.8125835,14.8170093 C31.0061991,16.1897606 30.0181607,17.4165322 28.9620555,18.5531189 C27.9825789,18.0600986 27.0312137,17.50158 26.1326467,16.9072443 C25.6830064,17.3541733 25.1765725,17.7197647 24.6791285,18.101909 C24.1903891,18.4944702 23.6395762,18.7822913 23.1171602,19.1176308 C23.2727006,20.2759075 23.3496146,21.4162043 23.38058,22.6063026 C22.0326581,23.2846872 20.5952648,23.7344702 19.1413186,24.0575376 C18.5608246,23.0819139 18.0299894,22.0253806 17.567649,20.992535 C17.0194047,21.0841469 16.4685918,21.118109 15.9170654,21.1246731 L15.9170654,21.1255292 C15.9132126,21.1255292 15.9096451,21.1246731 15.9063631,21.1246731 C15.9029384,21.1246731 15.8993709,21.1255292 15.8959462,21.1255292 L15.8959462,21.1246731 C15.3434209,21.118109 14.7930361,21.0841469 14.2446491,20.992535 C13.7825941,22.0253806 13.2520443,23.0819139 12.6706941,24.0575376 C11.2174614,23.7344702 9.77992537,23.2846872 8.43214618,22.6063026 C8.46296886,21.4162043 8.53988289,20.2759075 8.69585141,19.1176308 C8.17243647,18.7822913 7.62233707,18.4944702 7.13345496,18.101909 C6.63672448,17.7197647 6.12943438,17.3541733 5.67965142,16.9072443 C4.78108439,17.50158 3.83000463,18.0600986 2.85024264,18.5531189 C1.79413741,17.4165322 0.806669752,16.1897606 1.94863792e-15,14.8170093 C0.606893058,13.8352496 1.24047057,12.9149925 1.92456305,12.0416829 L1.94368454,12.0416829 Z" id="path84-6" fill="#478CBF" transform="translate(15.906292, 12.028769) scale(-1, 1) rotate(-180.000000) translate(-15.906292, -12.028769) "></path>
            <path d="M25.2331186,29.5522148 L25.0731546,27.2600626 C25.0538904,26.9838 24.834136,26.7639029 24.5578734,26.744068 L19.0561659,26.3515068 C19.0427523,26.3505079 19.0293388,26.3500798 19.0160679,26.3500798 C18.7426592,26.3500798 18.50678,26.5507127 18.4663966,26.8252629 L18.1508921,28.9648713 L13.6617671,28.9648713 L13.3462626,26.8252629 C13.3038814,26.5372991 13.0464549,26.3302448 12.7564933,26.3515068 L7.2547858,26.744068 C6.97852317,26.7639029 6.75876881,26.9838 6.73950463,27.2600626 L6.57954057,29.5522148 L1.93516052,30 C1.93730099,29.5008437 1.94372238,28.9540263 1.94372238,28.845148 C1.94372238,23.9400594 8.16605292,21.582409 15.8968402,21.5552964 L15.9062582,21.5552964 L15.915819,21.5552964 C23.6466063,21.582409 29.8667963,23.9400594 29.8667963,28.845148 C29.8667963,28.9560241 29.8735031,29.5005583 29.8757863,30 L25.2331186,29.5522148 Z" id="path88-5" fill="#478CBF" transform="translate(15.905473, 25.777648) scale(-1, 1) rotate(-180.000000) translate(-15.905473, -25.777648) "></path>
            <path d="M11.6971181,15.437702 C11.6971181,13.71791 10.3036757,12.324753 8.58445454,12.324753 C6.86608958,12.324753 5.47221904,13.71791 5.47221904,15.437702 C5.47221904,17.1563523 6.86608958,18.5487959 8.58445454,18.5487959 C10.3036757,18.5487959 11.6971181,17.1563523 11.6971181,15.437702" id="path92-5" fill="#FFFFFF" transform="translate(8.584669, 15.436774) scale(-1, 1) rotate(-180.000000) translate(-8.584669, -15.436774) "></path>
            <path d="M10.9481519,15.6196185 C10.9481519,14.4788936 10.0236139,13.5543556 8.88203277,13.5543556 C7.74102245,13.5543556 6.81591366,14.4788936 6.81591366,15.6196185 C6.81591366,16.7603435 7.74102245,17.6857376 8.88203277,17.6857376 C10.0236139,17.6857376 10.9481519,16.7603435 10.9481519,15.6196185" id="path96-2" fill="#414042" transform="translate(8.882033, 15.620047) scale(-1, 1) rotate(-180.000000) translate(-8.882033, -15.620047) "></path>
            <path d="M15.9060641,14.1453759 C15.3526827,14.1453759 14.904184,14.5532057 14.904184,15.0559295 L14.904184,17.9214408 C14.904184,18.4237365 15.3526827,18.8319944 15.9060641,18.8319944 C16.4594456,18.8319944 16.9089431,18.4237365 16.9089431,17.9214408 L16.9089431,15.0559295 C16.9089431,14.5532057 16.4594456,14.1453759 15.9060641,14.1453759" id="path100-1" fill="#FFFFFF" transform="translate(15.906564, 16.488685) scale(-1, 1) rotate(-180.000000) translate(-15.906564, -16.488685) "></path>
            <path d="M20.1155305,15.437702 C20.1155305,13.71791 21.508973,12.324753 23.2284795,12.324753 C24.9467018,12.324753 26.3404296,13.71791 26.3404296,15.437702 C26.3404296,17.1563523 24.9467018,18.5487959 23.2284795,18.5487959 C21.508973,18.5487959 20.1155305,17.1563523 20.1155305,15.437702" id="path104-7" fill="#FFFFFF" transform="translate(23.227980, 15.436774) scale(-1, 1) rotate(-180.000000) translate(-23.227980, -15.436774) "></path>
            <path d="M20.864686,15.6196185 C20.864686,14.4788936 21.7889386,13.5543556 22.9296635,13.5543556 C24.07153,13.5543556 24.9957826,14.4788936 24.9957826,15.6196185 C24.9957826,16.7603435 24.07153,17.6857376 22.9296635,17.6857376 C21.7889386,17.6857376 20.864686,16.7603435 20.864686,15.6196185" id="path108-9" fill="#414042" transform="translate(22.930234, 15.620047) scale(-1, 1) rotate(-180.000000) translate(-22.930234, -15.620047) "></path>
        </g>
    </g>
</svg>