<svg xmlns="http://www.w3.org/2000/svg" width="854" height="285" viewBox="0 0 854 285">
  <g fill="none" fill-rule="evenodd">
    <g transform="rotate(-90 231.5 53.5)">
      <path fill="#F9F5F1" fill-rule="nonzero" d="M1,442.434723 L1,180.271176 C1,180.271176 1.84160108,180.242766 1.85063944,177.432829 C1.85348007,176.523731 1.86071076,152.918191 1.85063944,147.238915 C1.8457329,144.414514 1,144.401084 1,144.401084 L1,136.969988 C1,136.969988 1.84547466,136.952942 1.85063944,134.131899 C1.85477127,131.856831 1.85063944,109.599699 1.85063944,103.913966 C1.85063944,101.087242 1,101.075619 1,101.075619 L1,86.805373 C1,86.805373 1.5673512,86.5334185 1.56709296,85.9530939 L1.56709296,68.3282262 C1.56296114,67.7613318 1,67.4759474 1,67.4759474 L1,38.9914978 C1,17.4717159 18.4696137,8.52651283e-14 39.9873829,8.52651283e-14 L213.02201,8.52651283e-14 C234.538488,8.52651283e-14 252.00836,17.4717159 252.00836,38.9914978 L252.00836,112.738926 C252.00836,112.738926 251.442816,112.823637 251.440233,115.293696 C251.429905,124.323978 251.437651,157.18475 251.440233,166.438432 C251.442816,168.832561 252.00836,168.866135 252.00836,168.866135 L252.00836,459.720489 C252.00836,481.24182 234.538488,498.713536 213.02201,498.713536 L39.9873829,498.713536 C18.4696137,498.713536 1,481.24182 1,459.720489 L1,442.434723 Z"/>
      <g opacity=".3" transform="translate(.03)">
        <path fill="#A4988B" fill-rule="nonzero" d="M2.41076133.0769742334L2.41076133 18.5798683 1.03779779 18.5798683C.614280529 18.5798683.116471997 18.0795641.116471997 17.7143591L.116471997.872178558C.116471997.485882167.679261645.0769742334 1.00492723.0769742334L2.41076133.0769742334zM2.43622176 33.8618332L2.43622176 68.9321493 1.63003794 68.9321493C1.20652068 68.9321493.14174243 67.863136.14174243 67.4996412L.14174243 35.2259365C.14174243 34.8396402 1.2716918 33.8618332 1.59735738 33.8618332L2.43622176 33.8618332zM251.929119 45.2943442L251.929119 100.826588 252.734732 100.826588C253.15844 100.826588 253.70755 99.759285 253.70755 99.39408L253.70755 46.6563573C253.70755 46.270251 253.095738 45.2943442 252.768932 45.2943442L251.929119 45.2943442zM2.43622176 77.1887831L2.43622176 112.233827 1.63003794 112.233827C1.20652068 112.233827.14174243 111.174315.14174243 110.81272L.14174243 78.5431957C.14174243 78.1589896 1.2716918 77.1887831 1.59735738 77.1887831L2.43622176 77.1887831z" transform="translate(0 67.707)"/>
        <g fill-rule="nonzero" transform="translate(1.52)">
          <path fill="#A4988B" d="M0,442.434723 L0,180.271176 C0,180.271176 0.841601076,180.242766 0.850639441,177.432829 C0.853480072,176.523731 0.860710764,152.918191 0.850639441,147.238915 C0.845732899,144.414514 0,144.401084 0,144.401084 L0,136.969988 C0,136.969988 0.84547466,136.952942 0.850639441,134.131899 C0.854771267,131.856831 0.850639441,109.599699 0.850639441,103.913966 C0.850639441,101.087242 0,101.075619 0,101.075619 L0,86.805373 C0,86.805373 0.567351199,86.5334185 0.567092962,85.9530939 L0.567092962,68.3282262 C0.562961136,67.7613318 0,67.4759474 0,67.4759474 L0,38.9914978 C0,17.4717159 17.4696137,0 38.9873829,0 L212.02201,0 C233.538488,0 251.00836,17.4717159 251.00836,38.9914978 L251.00836,112.738926 C251.00836,112.738926 250.442816,112.823637 250.440233,115.293696 C250.429905,124.323978 250.437651,157.18475 250.440233,166.438432 C250.442816,168.832561 251.00836,168.866135 251.00836,168.866135 L251.00836,459.720489 C251.00836,481.24182 233.538488,498.713536 212.02201,498.713536 L38.9873829,498.713536 C17.4696137,498.713536 0,481.24182 0,459.720489 L0,442.434723 Z"/>
          <path fill="#F9F5F1" d="M245.86096,38.299875 C245.86096,19.7960096 230.841712,4.77421253 212.340121,4.77421253 L38.7033758,4.77421253 C20.2029805,4.77421253 5.18253798,19.7960096 5.18253798,38.299875 L5.18253798,459.892778 C5.18253798,478.394379 20.2029805,493.416178 38.7033758,493.416178 L212.340121,493.416178 C230.841712,493.416178 245.86096,478.394379 245.86096,459.892778 L245.86096,38.299875 Z"/>
        </g>
        <path stroke="#A4988B" stroke-width="2" d="M111.886386,21.5316351 C111.886386,22.7872409 112.66388,23.5195509 113.623396,23.5195509 L139.925167,23.5195509 C140.884683,23.5195509 141.662177,22.7872409 141.662177,21.5316351 C141.662177,20.2760294 140.884683,19.5437193 139.925167,19.5437193 L113.623396,19.5437193 C112.66388,19.5437193 111.886386,20.2760294 111.886386,21.5316351 Z M148.2551,21.5316351 C148.2551,23.6470497 149.968169,25.3628669 152.082715,25.3628669 C154.197072,25.3628669 155.910331,23.6470497 155.910331,21.5316351 C155.910331,19.4143205 154.197072,17.6985033 152.082715,17.6985033 C149.968169,17.6985033 148.2551,19.4143205 148.2551,21.5316351 Z"/>
      </g>
    </g>
    <g fill-rule="nonzero" transform="translate(253 94)">
      <path fill="#40434A" d="M9.555,115.1 C10.29,115.1 11.025,114.75 11.025,114.05 L11.025,90.53 C11.025,89.83 10.29,89.515 9.555,89.515 C8.82,89.515 8.085,89.83 8.085,90.53 L8.085,114.05 C8.085,114.75 8.82,115.1 9.555,115.1 Z M28.525,123.115 C32.515,123.115 35.63,121.47 35.63,118.005 C35.63,111.565 24.85,114.61 24.85,111.705 C24.85,111.11 25.27,110.795 25.725,110.515 C26.495,110.865 27.37,111.04 28.315,111.04 C32.025,111.04 34.65,108.555 34.65,105.23 L34.65,104.075 C34.65,102.815 34.3,101.625 33.565,100.75 C34.16,99.77 34.93,99.42 35.455,99.28 C35.77,99.14 36.05,98.86 36.05,98.475 C36.05,97.985 35.595,97.39 34.79,97.39 C34.02,97.39 33.11,98.125 32.41,99.665 C31.36,98.825 29.96,98.3 28.315,98.3 C24.57,98.3 22.085,100.68 22.085,104.075 L22.085,105.23 C22.085,107.05 22.82,108.625 24.08,109.64 C23.03,110.235 22.33,110.935 22.33,112.23 C22.33,113.56 23.065,114.19 24.115,114.575 C22.61,115.24 21.28,116.43 21.28,118.39 C21.28,121.33 24.43,123.115 28.525,123.115 Z M28.385,109.045 C26.18,109.045 24.92,107.365 24.92,105.195 L24.92,104.075 C24.92,101.975 26.145,100.295 28.35,100.295 C30.52,100.295 31.815,101.975 31.815,104.075 L31.815,105.23 C31.815,107.435 30.485,109.045 28.385,109.045 Z M28.49,121.085 C25.795,121.085 24.045,119.895 24.045,118.075 C24.045,116.57 25.305,115.695 26.81,115.205 C29.015,115.485 32.795,115.45 32.795,118.075 C32.795,119.895 31.115,121.085 28.49,121.085 Z M40.005,115.1 C40.81,115.1 41.475,114.575 41.475,114.05 L41.475,106.07 C41.475,102.885 43.68,100.925 45.92,100.925 L47.11,100.925 C47.705,100.925 48.23,100.33 48.23,99.63 C48.23,98.93 47.705,98.3 47.11,98.3 L45.92,98.3 C43.75,98.3 42.105,99.735 41.335,101.17 L41.335,99.525 C41.335,98.93 40.74,98.51 40.005,98.51 C39.165,98.51 38.57,98.93 38.57,99.525 L38.57,114.05 C38.57,114.575 39.165,115.1 40.005,115.1 Z M56.35,115.38 C60.06,115.38 63.28,112.125 63.28,108.59 L63.28,105.02 C63.28,101.345 60.06,98.3 56.35,98.3 C52.57,98.3 49.455,101.45 49.455,105.02 L49.455,108.59 C49.455,112.16 52.64,115.38 56.35,115.38 Z M56.35,112.755 C54.145,112.755 52.36,110.725 52.36,108.59 L52.36,105.02 C52.36,102.955 54.11,100.925 56.35,100.925 C58.59,100.925 60.375,102.955 60.375,105.02 L60.375,108.59 C60.375,110.725 58.555,112.755 56.35,112.755 Z M81.13,115.415 C81.655,115.415 82.11,115.24 82.285,114.785 L87.745,100.26 C87.815,100.12 87.885,99.875 87.885,99.7 C87.885,98.93 86.8,98.44 86.065,98.44 C85.645,98.44 85.26,98.65 85.155,99 L80.885,110.865 L77.665,100.155 C77.49,99.63 77.07,99.455 76.545,99.455 C76.055,99.455 75.635,99.63 75.46,100.155 L72.17,110.76 L67.935,99 C67.795,98.615 67.41,98.44 66.99,98.44 C66.22,98.44 65.205,98.965 65.205,99.7 C65.205,99.84 65.275,100.05 65.345,100.26 L70.77,114.68 C70.98,115.24 71.4,115.415 71.96,115.415 C72.555,115.415 73.045,115.17 73.22,114.68 L76.545,104.495 L79.94,114.785 C80.115,115.205 80.535,115.415 81.13,115.415 Z M140.84,93.96 C141.82,93.96 142.625,93.155 142.625,92.28 C142.625,91.405 141.82,90.635 140.84,90.635 C139.825,90.635 139.02,91.405 139.02,92.28 C139.02,93.155 139.825,93.96 140.84,93.96 Z M140.84,115.1 C141.645,115.1 142.31,114.575 142.31,114.05 L142.31,99.525 C142.31,98.93 141.645,98.51 140.84,98.51 C140.035,98.51 139.405,98.93 139.405,99.525 L139.405,114.05 C139.405,114.575 140.035,115.1 140.84,115.1 Z M158.585,115.1 C159.32,115.1 160.055,114.75 160.055,114.05 L160.055,105.02 C160.055,101.345 157.22,98.3 153.895,98.3 C151.55,98.3 149.905,99.595 149.205,100.96 L149.205,99.525 C149.205,98.93 148.575,98.51 147.875,98.51 C147.035,98.51 146.44,98.93 146.44,99.525 L146.44,114.05 C146.44,114.575 147.035,115.1 147.875,115.1 C148.645,115.1 149.345,114.575 149.345,114.05 L149.345,105.02 C149.345,102.465 151.27,100.925 153.16,100.925 C155.33,100.925 157.15,102.955 157.15,105.02 L157.15,114.05 C157.15,114.75 157.885,115.1 158.585,115.1 Z M193.095,115.1 C193.9,115.1 194.565,114.575 194.565,114.05 L194.565,105.02 C194.565,100.75 191.66,98.3 188.58,98.3 C186.55,98.3 184.485,99.42 183.26,101.8 C182.455,99.735 180.67,98.3 178.465,98.3 C176.155,98.3 174.58,99.595 173.81,100.96 L173.81,99.525 C173.81,98.93 173.215,98.51 172.48,98.51 C171.64,98.51 171.045,98.93 171.045,99.525 L171.045,114.05 C171.045,114.575 171.64,115.1 172.48,115.1 C173.285,115.1 173.95,114.575 173.95,114.05 L173.95,105.02 C173.95,102.395 175.84,100.925 177.695,100.925 C179.655,100.925 181.335,102.57 181.335,104.95 L181.335,114.085 C181.335,114.785 182.105,115.1 182.77,115.1 C183.505,115.1 184.24,114.785 184.24,114.085 L184.24,104.915 C184.24,102.465 186.13,100.925 187.985,100.925 C189.77,100.925 191.66,102.325 191.66,105.02 L191.66,114.05 C191.66,114.575 192.325,115.1 193.095,115.1 Z M197.995,123.115 C202.405,123.115 204.12,118.25 205.59,114.33 L210.91,100.085 C210.98,99.98 211.015,99.84 211.015,99.735 C211.015,98.895 209.825,98.3 209.125,98.3 C208.74,98.3 208.39,98.475 208.215,98.895 L204.05,111.075 L199.43,98.895 C199.29,98.475 198.905,98.3 198.485,98.3 C197.715,98.3 196.595,98.93 196.595,99.7 C196.595,99.84 196.665,99.98 196.735,100.085 L202.545,114.26 C201.81,118.04 199.5,120.56 197.47,120.56 C196.84,120.56 196.63,121.155 196.63,121.82 C196.63,122.87 197.225,123.115 197.995,123.115 Z M228.165,115.38 C231.455,115.38 234.325,112.125 234.325,108.59 L234.325,105.02 C234.325,101.345 231.49,98.3 228.06,98.3 C225.82,98.3 224.245,99.595 223.475,100.96 L223.475,89.515 C223.475,88.92 222.81,88.5 222.005,88.5 C221.165,88.5 220.57,88.92 220.57,89.515 L220.57,114.05 C220.57,114.575 221.165,115.1 222.005,115.1 C222.74,115.1 223.335,114.575 223.335,114.05 L223.335,112.65 C224.07,114.085 225.96,115.38 228.165,115.38 Z M227.465,112.755 C225.19,112.755 223.475,110.48 223.475,109.535 L223.475,105.02 C223.475,102.465 225.47,100.925 227.43,100.925 C229.635,100.925 231.42,102.955 231.42,105.02 L231.42,108.59 C231.42,110.69 229.6,112.755 227.465,112.755 Z M241.465,115.38 C243.81,115.38 245.525,114.05 246.75,112.65 L246.75,114.05 C246.75,114.645 247.31,115.1 248.08,115.1 C248.92,115.1 249.515,114.645 249.515,114.05 L249.515,105.09 C249.515,101.59 247.73,98.3 242.83,98.3 C240.52,98.3 237.86,99.245 237.86,100.33 C237.86,100.96 238.245,101.8 238.945,101.8 C239.575,101.8 240.31,100.785 242.76,100.785 C245.56,100.785 246.61,103.06 246.61,105.125 L246.61,105.86 L244.93,105.86 C240.065,105.86 236.74,106.84 236.74,110.725 C236.74,113.91 238.84,115.38 241.465,115.38 Z M242.375,113.035 C240.835,113.035 239.68,112.23 239.68,110.41 C239.68,107.925 242.41,107.645 245.385,107.645 L246.61,107.645 L246.61,109.465 C246.61,111.075 244.37,113.035 242.375,113.035 Z M259.91,115.38 C263.06,115.38 265.23,113.98 265.23,112.895 C265.23,112.3 264.705,111.495 263.935,111.495 C263.165,111.495 262.64,112.755 260.12,112.755 C257.18,112.755 255.815,111.18 255.815,108.59 L255.815,105.09 C255.815,102.5 257.215,100.925 260.085,100.925 C262.5,100.925 263.095,102.15 263.795,102.15 C264.495,102.15 265.02,101.31 265.02,100.715 C265.02,99.665 262.955,98.3 259.875,98.3 C255.08,98.3 252.91,101.31 252.91,105.09 L252.91,108.59 C252.91,112.44 255.08,115.38 259.91,115.38 Z M280.315,115.24 C281.05,115.24 281.925,114.47 281.925,113.77 C281.925,113.595 281.855,113.42 281.75,113.245 L275.94,104.81 L280.805,100.505 C281.05,100.295 281.12,100.05 281.12,99.805 C281.12,99.105 280.315,98.44 279.65,98.44 C279.44,98.44 279.195,98.545 279.02,98.685 L271.04,105.895 L271.04,89.515 C271.04,88.92 270.375,88.5 269.57,88.5 C268.73,88.5 268.135,88.92 268.135,89.515 L268.135,114.05 C268.135,114.575 268.73,115.1 269.57,115.1 C270.375,115.1 271.04,114.575 271.04,114.05 L271.04,109.22 L273.945,106.63 L279.51,114.785 C279.72,115.1 280,115.24 280.315,115.24 Z M284.2,123.115 C288.61,123.115 290.325,118.25 291.795,114.33 L297.115,100.085 C297.185,99.98 297.22,99.84 297.22,99.735 C297.22,98.895 296.03,98.3 295.33,98.3 C294.945,98.3 294.595,98.475 294.42,98.895 L290.255,111.075 L285.635,98.895 C285.495,98.475 285.11,98.3 284.69,98.3 C283.92,98.3 282.8,98.93 282.8,99.7 C282.8,99.84 282.87,99.98 282.94,100.085 L288.75,114.26 C288.015,118.04 285.705,120.56 283.675,120.56 C283.045,120.56 282.835,121.155 282.835,121.82 C282.835,122.87 283.43,123.115 284.2,123.115 Z M303.38,115.38 C305.725,115.38 307.44,114.05 308.665,112.65 L308.665,114.05 C308.665,114.645 309.225,115.1 309.995,115.1 C310.835,115.1 311.43,114.645 311.43,114.05 L311.43,105.09 C311.43,101.59 309.645,98.3 304.745,98.3 C302.435,98.3 299.775,99.245 299.775,100.33 C299.775,100.96 300.16,101.8 300.86,101.8 C301.49,101.8 302.225,100.785 304.675,100.785 C307.475,100.785 308.525,103.06 308.525,105.125 L308.525,105.86 L306.845,105.86 C301.98,105.86 298.655,106.84 298.655,110.725 C298.655,113.91 300.755,115.38 303.38,115.38 Z M304.29,113.035 C302.75,113.035 301.595,112.23 301.595,110.41 C301.595,107.925 304.325,107.645 307.3,107.645 L308.525,107.645 L308.525,109.465 C308.525,111.075 306.285,113.035 304.29,113.035 Z M316.855,115.1 C317.66,115.1 318.325,114.575 318.325,114.05 L318.325,106.07 C318.325,102.885 320.53,100.925 322.77,100.925 L323.96,100.925 C324.555,100.925 325.08,100.33 325.08,99.63 C325.08,98.93 324.555,98.3 323.96,98.3 L322.77,98.3 C320.6,98.3 318.955,99.735 318.185,101.17 L318.185,99.525 C318.185,98.93 317.59,98.51 316.855,98.51 C316.015,98.51 315.42,98.93 315.42,99.525 L315.42,114.05 C315.42,114.575 316.015,115.1 316.855,115.1 Z M332.465,115.38 C334.67,115.38 336.56,114.085 337.295,112.65 L337.295,114.05 C337.295,114.575 337.89,115.1 338.625,115.1 C339.465,115.1 340.06,114.575 340.06,114.05 L340.06,89.515 C340.06,88.92 339.465,88.5 338.625,88.5 C337.82,88.5 337.155,88.92 337.155,89.515 L337.155,100.96 C336.385,99.595 334.81,98.3 332.57,98.3 C329.14,98.3 326.305,101.345 326.305,105.02 L326.305,108.59 C326.305,112.125 329.175,115.38 332.465,115.38 Z M333.165,112.755 C331.03,112.755 329.21,110.69 329.21,108.59 L329.21,105.02 C329.21,102.955 330.995,100.925 333.2,100.925 C335.16,100.925 337.155,102.465 337.155,105.02 L337.155,109.535 C337.155,110.48 335.44,112.755 333.165,112.755 Z M345.275,115.31 C346.255,115.31 347.06,114.435 347.06,113.49 C347.06,112.475 346.255,111.635 345.275,111.635 C344.225,111.635 343.455,112.475 343.455,113.49 C343.455,114.435 344.225,115.31 345.275,115.31 Z"/>
      <path fill="#009A9C" d="M13.1506348,67 L13.1506348,41.3806152 L23.1191406,41.3806152 L23.1191406,67 L31.5290527,67 L31.5290527,11.5400391 L23.1191406,11.5400391 L23.1191406,34.7565918 L13.1506348,34.7565918 L13.1506348,11.5400391 L4.74072266,11.5400391 L4.74072266,67 L13.1506348,67 Z M61.9541016,67 L61.9541016,60.3759766 L49.4853516,60.3759766 L49.4853516,41.3806152 L58.8693848,41.3806152 L58.8693848,34.7565918 L49.4853516,34.7565918 L49.4853516,18.1640625 L61.6293945,18.1640625 L61.6293945,11.5400391 L41.0754395,11.5400391 L41.0754395,67 L61.9541016,67 Z M83.0275879,67 L83.0275879,48.5241699 L94.2624512,11.5400391 L85.8200684,11.5400391 L79.0986328,38.0686035 L78.7089844,38.0686035 L71.9226074,11.5400391 L63.4477539,11.5400391 L74.6176758,48.5241699 L74.6176758,67 L83.0275879,67 Z M103.062012,77.6179199 L107.802734,55.6352539 L99.4577637,55.6352539 L96.2106934,77.6179199 L103.062012,77.6179199 Z M138.422607,67 L138.422607,11.5400391 L130.012695,11.5400391 L130.012695,67 L138.422607,67 Z M152.8396,28.6845703 L157.710205,13.3583984 L157.710205,6.08496094 L149.008057,6.08496094 L149.008057,15.7937012 L146.442871,28.6845703 L152.8396,28.6845703 Z M175.893799,67 L175.893799,48.6540527 C175.893799,37.3867188 175.374268,27.5480957 175.01709,23.6516113 L175.634033,23.6516113 L184.076416,59.8564453 L189.401611,59.8564453 L197.779053,23.6516113 L198.395996,23.6516113 C198.044977,27.4809149 197.537154,37.0492223 197.519747,48.0725568 L197.519287,67 L205.377197,67 L205.377197,11.5400391 L194.629395,11.5400391 L189.141846,33.0031738 C188.005371,37.7438965 187.453369,42.1274414 186.868896,45.894043 L186.609131,45.894043 C186.024658,42.1274414 185.472656,37.7438965 184.336182,33.0031738 L179.010986,11.5400391 L168.035889,11.5400391 L168.035889,67 L175.893799,67 Z M237.490723,67 L237.490723,41.3806152 L247.52417,41.3806152 L247.52417,34.7565918 L237.490723,34.7565918 L237.490723,18.1640625 L250.28418,18.1640625 L250.28418,11.5400391 L229.080811,11.5400391 L229.080811,67 L237.490723,67 Z M264.14917,67 L264.14917,46.2512207 L267.298828,46.2512207 L274.669678,67 L283.56665,67 L274.669678,44.8225098 C279.345459,42.4846191 281.845703,37.1918945 281.845703,28.7819824 L281.845703,27.3857422 C281.845703,12.47 271.502729,11.5570537 265.215155,11.5400391 L255.901611,11.5400391 L255.901611,67 L264.14917,67 Z M265.415527,40.1791992 L264.14917,40.1791992 L264.14917,17.677002 L265.415527,17.677002 C271.55249,17.677002 273.40332,20.2097168 273.40332,25.9245605 L273.40332,30.3081055 C273.40332,37.7763672 271.325195,40.1791992 265.415527,40.1791992 Z M310.80957,67 L310.80957,60.3759766 L298.34082,60.3759766 L298.34082,41.3806152 L307.724854,41.3806152 L307.724854,34.7565918 L298.34082,34.7565918 L298.34082,18.1640625 L310.484863,18.1640625 L310.484863,11.5400391 L289.930908,11.5400391 L289.930908,67 L310.80957,67 Z M343.832275,47.3227539 L343.832275,31.2172852 C343.832275,12.3472607 334.009043,11.564457 326.098067,11.5406929 L316.881592,11.5400391 L316.881592,67 L326.098067,66.9993844 C334.009043,66.9768549 343.832275,66.2245996 343.832275,47.3227539 Z M327.43457,61.1228027 L325.291504,61.1228027 L325.291504,17.677002 L327.43457,17.677002 C333.539062,17.677002 335.032715,20.3720703 335.032715,30.795166 L335.032715,48.0046387 C335.032715,58.4277344 333.539062,61.1228027 327.43457,61.1228027 Z"/>
      <g transform="translate(91 84)">
        <g transform="rotate(-15 24.984 .85)">
          <path fill="#3D9C64" d="M11.5523184,5.88960594 C7.1289316,5.37932674 5.34764103,3.11232475 4.56356624,0.182512871 C8.48933974,0.610704951 11.1942415,2.16657624 11.5523184,5.88960594 Z"/>
          <path fill="#BE7234" d="M12.8943513,11.9291241 C12.9533146,12.3109367 12.7001914,12.6696219 12.3289846,12.7302699 C11.9577779,12.7909179 11.6090563,12.5305625 11.550093,12.1487499 C11.5405023,12.0866463 11.5278646,11.9817513 11.5157963,11.8375389 C11.3194747,9.49154745 11.8521506,6.66162429 13.7259881,3.94599047 C13.7316353,3.93781075 13.7316353,3.93781075 13.7372948,3.92963123 C13.9553093,3.61471237 14.3802457,3.54120546 14.6864169,3.76544895 C14.992588,3.98969245 15.0640531,4.42676991 14.8460386,4.74168877 C14.840991,4.74898382 14.840991,4.74898382 14.8359546,4.75627869 C13.1730108,7.16627772 12.7009164,9.6743521 12.8718932,11.7174781 C12.8811079,11.827592 12.8897532,11.89935 12.8943513,11.9291241 Z"/>
          <path fill="#E6505E" d="M12.25,8.0086083 L12.25,29.0086083 C7.89023837,32.229319 0.680555555,24.8065146 0.680555555,15.7086083 C0.680555555,6.21137199 8.71975461,6.02093487 12.25,8.0086083 Z M12.25,8.0086083 C15.7802454,6.02093487 24.1597222,6.21137199 24.1597222,15.7086083 C24.1597222,24.8065146 16.6097616,32.229319 12.25,29.0086083 L12.25,8.0086083 Z"/>
        </g>
        <g transform="scale(-1 1) rotate(-15 20.844 166.727)">
          <path fill="#3D9C64" d="M10.5621197,5.35418722 C6.51788034,4.89029703 4.88927179,2.82938614 4.17240342,0.165920792 C7.76168204,0.555186318 10.2347351,1.96961476 10.5621197,5.35418722 Z"/>
          <path fill="#C6D645" d="M11.2,7.280553 L11.2,26.3714621 C7.21393225,29.2993809 0.622222222,22.551377 0.622222222,14.280553 C0.622222222,5.64670181 7.97234704,5.47357716 11.2,7.280553 Z M11.2,7.280553 C14.427653,5.47357716 22.0888889,5.64670181 22.0888889,14.280553 C22.0888889,22.551377 15.1860677,29.2993809 11.2,26.3714621 L11.2,7.280553 Z"/>
          <path fill="#BE7234" d="M11.7891212,10.8446583 C11.8430305,11.1917607 11.6116035,11.5178381 11.2722145,11.5729727 C10.9328255,11.6281072 10.6139943,11.3914205 10.560085,11.0443181 C10.5513164,10.9878602 10.5397619,10.8925011 10.5287281,10.761399 C10.3492339,8.6286795 10.8362519,6.05602208 12.5494748,3.58726406 C12.554638,3.57982796 12.554638,3.57982796 12.5598124,3.57239203 C12.75914,3.28610215 13.1476533,3.21927768 13.4275812,3.42313541 C13.707509,3.62699314 13.7728485,4.02433628 13.5735209,4.31062616 C13.5689061,4.31725802 13.5689061,4.31725802 13.5643014,4.32388972 C12.0438956,6.51479795 11.6122664,8.79486552 11.768588,10.6522528 C11.7770129,10.7523564 11.7849173,10.817591 11.7891212,10.8446583 Z"/>
          <path fill="#FAF0B8" d="M11.2,10.8181818 C12.8608109,5.67875237 22.4,4.7862893 22.4,14.5068235 C22.4,22.0845244 14.8653539,30.1916246 11.2,24.1818181 C11.2,22.2775346 11.2,14.5846135 11.2,10.8181818 Z M11.2,10.7781759 C11.2,14.5446077 11.2,22.2375288 11.2,24.1418123 C7.53464607,30.1516187 2.84217094e-13,22.0445186 2.84217094e-13,14.4668176 C2.84217094e-13,4.74628346 9.5391891,5.63874653 11.2,10.7781759 Z"/>
          <g fill="#BE7234" transform="translate(8.09 15.273)">
            <path d="M5.2820976,3.20245983 C4.38375834,3.66708614 3.73333333,1.19896272 3.73333333,1.55431224e-14 C5.96427078,0.245488547 6.18043687,2.73783352 5.2820976,3.20245983 Z"/>
            <path d="M1.99357538,3.20245983 C1.09523612,3.66708614 0.44481111,1.19896272 0.44481111,1.55431224e-14 C2.67574856,0.245488547 2.89191465,2.73783352 1.99357538,3.20245983 Z" transform="matrix(-1 0 0 1 2.933 0)"/>
          </g>
        </g>
      </g>
    </g>
  </g>
</svg>
