<svg xmlns="http://www.w3.org/2000/svg" width="40" height="30" viewBox="0 0 40 30">
  <defs>
    <linearGradient id="koru-a" x1="50%" x2="50%" y1="32.872%" y2="100%">
      <stop offset="0%" stop-color="#41882D"/>
      <stop offset="100%" stop-color="#7E7607"/>
    </linearGradient>
  </defs>
  <path fill="url(#koru-a)" d="M15.0990288,0.0197785409 C5.93433923,0.452217195 2.36162659,8.28818116 1.68400302,10.8332619 C0.601991188,14.8971811 0.998742741,17.5119942 1.54343371,19.2427653 C2.86290775,23.6462928 6.135972,27.608695 11.035739,29.237949 C18.3908543,31.6613051 25.8455395,28.1279297 28.3590941,21.1502723 C29.8369974,17.0624387 29.2427905,9.0092485 21.3364393,6.63442396 L21.0946093,6.56420761 C16.2705488,5.13663605 14.0447659,6.96421492 12.87225,7.97130303 L12.7310595,8.09262083 C11.5466056,9.09312765 10.5682411,10.6331749 10.1441378,12.718657 C9.72003457,14.8041392 10.5188203,17.8793405 12.8816609,18.6924939 C16.1309327,19.7886801 17.5209017,17.5236849 17.7664211,16.929938 L17.8083095,16.8065245 C17.9452766,16.3966613 17.8647858,16.5604908 17.8647858,16.5604908 L17.8294398,16.5765451 C17.629531,16.6634775 16.6106076,17.0557078 15.516009,16.5526678 L15.4683723,16.5302288 C14.0247512,15.8769591 13.8493062,14.7297253 14.2915551,13.397084 C14.7855225,12.0343923 16.4237291,11.4642233 18.2483102,12.0002384 C20.0321022,12.5252542 21.8988315,14.2165551 20.8146759,17.79593 C19.7305202,21.375305 16.3317395,22.4826453 13.5580792,21.7346976 C10.7844189,20.9867499 6.4151207,17.0367148 7.96709726,11.2076589 C9.51907382,5.37860309 15.2742636,3.63078336 18.1332154,3.56578929 C22.4067132,3.44227372 27.4243497,6.59920793 27.4243497,6.59920793 L27.393138,6.54837832 C26.9979224,5.91599689 22.8519439,-0.397388151 15.0990288,0.0197785409 Z"/>
</svg>
