<svg xmlns="http://www.w3.org/2000/svg" xmlns:xlink="http://www.w3.org/1999/xlink" width="40" height="30" viewBox="0 0 40 30">
  <defs>
    <linearGradient id="swiftui-b" x1="27.82%" x2="59.904%" y1="16.03%" y2="99.602%">
      <stop offset="0%" stop-color="#87F2F8"/>
      <stop offset="99.928%" stop-color="#03219C"/>
      <stop offset="100%" stop-color="#021F9B"/>
    </linearGradient>
    <path id="swiftui-a" d="M30,7.4522293 C30,6.81528662 29.9363057,6.11464968 29.8089172,5.47770701 C29.6815287,4.84076433 29.4904459,4.20382166 29.1719745,3.56687898 C28.8535032,2.99363057 28.4713376,2.42038217 28.0254777,1.97452229 C27.5796178,1.52866242 27.0063694,1.08280255 26.433121,0.828025478 C25.8598726,0.50955414 25.2229299,0.318471338 24.5859873,0.191082803 C23.9490446,0.0636942675 23.2484076,0.0636942675 22.611465,0 L21.7197452,0 L20.6369427,0 L12.6751592,0 L9.36305732,0 L8.28025478,0 L7.38853503,0 L6.87898089,0 C6.36942675,0 5.85987261,0.0636942675 5.41401274,0.127388535 C4.9044586,0.191082803 4.45859873,0.318471338 4.01273885,0.50955414 C3.88535032,0.573248408 3.69426752,0.636942675 3.56687898,0.700636943 C3.12101911,0.955414013 2.7388535,1.21019108 2.3566879,1.52866242 C2.22929936,1.65605096 2.10191083,1.71974522 1.97452229,1.84713376 C1.52866242,2.29299363 1.08280255,2.86624204 0.828025478,3.43949045 C0.50955414,4.01273885 0.318471338,4.64968153 0.191082803,5.35031847 C0.0636942675,5.98726115 0.0636942675,6.68789809 0,7.32484076 L0,8.21656051 L0,9.29936306 L0,14.2038217 L0,20.5732484 L0,21.656051 L0,22.5477707 C0,23.1847134 0.0636942675,23.8853503 0.191082803,24.522293 C0.318471338,25.1592357 0.50955414,25.7961783 0.828025478,26.433121 C1.14649682,27.0063694 1.52866242,27.5796178 1.97452229,28.0254777 C2.42038217,28.4713376 2.99363057,28.9171975 3.56687898,29.1719745 C4.14012739,29.4904459 4.77707006,29.6815287 5.41401274,29.8089172 C6.05095541,29.9363057 6.75159236,29.9363057 7.38853503,30 L8.28025478,30 L9.36305732,30 L20.6369427,30 L21.7197452,30 L22.611465,30 C23.2484076,30 23.9490446,29.9363057 24.5859873,29.8089172 C25.2229299,29.6815287 25.8598726,29.4904459 26.433121,29.1719745 C27.0063694,28.8535032 27.5796178,28.4713376 28.0254777,28.0254777 C28.4713376,27.5796178 28.9171975,27.0063694 29.1719745,26.433121 C29.4904459,25.8598726 29.6815287,25.2229299 29.8089172,24.522293 C29.9363057,23.8853503 29.9363057,23.1847134 30,22.5477707 L30,21.656051 L30,20.5732484 L30,9.29936306 L30,8.34394904 L30,7.4522293 L30,7.4522293 Z"/>
    <linearGradient id="swiftui-d" x1="37.736%" x2="80.275%" y1="41.505%" y2="73.24%">
      <stop offset="0%" stop-color="#6AD1F9" stop-opacity="0"/>
      <stop offset="100%" stop-color="#6AD1F9"/>
    </linearGradient>
    <linearGradient id="swiftui-e" x1="40.966%" x2="71.448%" y1="42.147%" y2="66.872%">
      <stop offset="0%" stop-color="#4594F9" stop-opacity="0"/>
      <stop offset="100%" stop-color="#4594F9"/>
    </linearGradient>
    <linearGradient id="swiftui-f" x1="29.852%" x2="62.472%" y1="32.622%" y2="59.69%">
      <stop offset="0%" stop-color="#244CCE" stop-opacity="0"/>
      <stop offset="100%" stop-color="#244CCE"/>
    </linearGradient>
  </defs>
  <g fill="none" fill-rule="evenodd">
    <mask id="swiftui-c" fill="#fff">
      <use xlink:href="#swiftui-a"/>
    </mask>
    <use fill="url(#swiftui-b)" fill-rule="nonzero" xlink:href="#swiftui-a"/>
    <g fill-rule="nonzero" mask="url(#swiftui-c)">
      <g transform="translate(-7 -5)">
        <path fill="url(#swiftui-d)" d="M17.1855814,18.57125 C14.5014535,20.086875 10.8113372,20.2425 7.09883721,18.6875 C4.09302326,17.4375 1.59883721,15.25 1.3632506e-15,12.75 C0.76744186,13.375 1.6627907,13.875 2.62209302,14.3125 C6.45610465,16.06875 10.2894767,15.94875 12.9863953,14.316875 C12.9851163,14.315625 12.9838372,14.31375 12.9825581,14.3125 C9.14534884,11.4375 5.88372093,7.6875 3.45348837,4.625 C2.94186047,4.125 2.55813953,3.5 2.1744186,2.9375 C5.11627907,5.5625 9.78488372,8.875 11.4476744,9.8125 C7.93023256,6.1875 4.79651163,1.6875 4.9244186,1.8125 C10.4883721,7.3125 15.6686047,10.4375 15.6686047,10.4375 C15.8406395,10.531875 15.9723837,10.610625 16.079186,10.680625 C16.1911047,10.401875 16.2889535,10.1125 16.372093,9.8125 C17.2674419,6.625 16.244186,3 14.005814,0 C19.1860465,3.0625 22.255814,8.8125 20.9767442,13.625 C20.9428488,13.755 20.9070349,13.883125 20.8680233,14.00875 C20.8827326,14.026875 20.8974419,14.044375 20.9127907,14.0625 C23.4709302,17.1875 22.7674419,20.5 22.4476744,19.875 C21.0598837,17.221875 18.4908721,18.033125 17.1855814,18.57125 L17.1855814,18.57125 Z"/>
        <path fill="url(#swiftui-e)" d="M21.0227907,22.32125 C18.3386628,23.836875 14.6485465,23.9925 10.9360465,22.4375 C7.93023256,21.1875 5.43604651,19 3.8372093,16.5 C4.60465116,17.125 5.5,17.625 6.45930233,18.0625 C10.293314,19.81875 14.126686,19.69875 16.8236047,18.066875 C16.8223256,18.065625 16.8210465,18.06375 16.8197674,18.0625 C12.9825581,15.1875 9.72093023,11.4375 7.29069767,8.375 C6.77906977,7.875 6.39534884,7.25 6.01162791,6.6875 C8.95348837,9.3125 13.622093,12.625 15.2848837,13.5625 C11.7674419,9.9375 8.63372093,5.4375 8.76162791,5.5625 C14.3255814,11.0625 19.505814,14.1875 19.505814,14.1875 C19.6778488,14.281875 19.809593,14.360625 19.9163953,14.430625 C20.028314,14.151875 20.1261628,13.8625 20.2093023,13.5625 C21.1046512,10.375 20.0813953,6.75 17.8430233,3.75 C23.0232558,6.8125 26.0930233,12.5625 24.8139535,17.375 C24.7800581,17.505 24.7442442,17.633125 24.7052326,17.75875 C24.7199419,17.776875 24.7346512,17.794375 24.75,17.8125 C27.3081395,20.9375 26.6046512,24.25 26.2848837,23.625 C24.897093,20.971875 22.3280814,21.783125 21.0227907,22.32125 L21.0227907,22.32125 Z"/>
        <path fill="url(#swiftui-f)" d="M24.86,26.07125 C22.1758721,27.586875 18.4857558,27.7425 14.7732558,26.1875 C11.7674419,24.9375 9.27325581,22.75 7.6744186,20.25 C8.44186047,20.875 9.3372093,21.375 10.2965116,21.8125 C14.1305233,23.56875 17.9638953,23.44875 20.660814,21.816875 C20.6595349,21.815625 20.6582558,21.81375 20.6569767,21.8125 C16.8197674,18.9375 13.5581395,15.1875 11.127907,12.125 C10.6162791,11.625 10.2325581,11 9.84883721,10.4375 C12.7906977,13.0625 17.4593023,16.375 19.122093,17.3125 C15.6046512,13.6875 12.4709302,9.1875 12.5988372,9.3125 C18.1627907,14.8125 23.3430233,17.9375 23.3430233,17.9375 C23.5150581,18.031875 23.6468023,18.110625 23.7536047,18.180625 C23.8655233,17.901875 23.9633721,17.6125 24.0465116,17.3125 C24.9418605,14.125 23.9186047,10.5 21.6802326,7.5 C26.8604651,10.5625 29.9302326,16.3125 28.6511628,21.125 C28.6172674,21.255 28.5814535,21.383125 28.5424419,21.50875 C28.5571512,21.526875 28.5718605,21.544375 28.5872093,21.5625 C31.1453488,24.6875 30.4418605,28 30.122093,27.375 C28.7343023,24.721875 26.1652907,25.533125 24.86,26.07125 L24.86,26.07125 Z"/>
        <path fill="#000" d="M27.1623256,28.32125 C24.4781977,29.836875 20.7880814,29.9925 17.0755814,28.4375 C14.0697674,27.1875 11.5755814,25 9.97674419,22.5 C10.744186,23.125 11.6395349,23.625 12.5988372,24.0625 C16.4328488,25.81875 20.2662209,25.69875 22.9631395,24.066875 C22.9618605,24.065625 22.9605814,24.06375 22.9593023,24.0625 C19.122093,21.1875 15.8604651,17.4375 13.4302326,14.375 C12.9186047,13.875 12.5348837,13.25 12.1511628,12.6875 C15.0930233,15.3125 19.7616279,18.625 21.4244186,19.5625 C17.9069767,15.9375 14.7732558,11.4375 14.9011628,11.5625 C20.4651163,17.0625 25.6453488,20.1875 25.6453488,20.1875 C25.8173837,20.281875 25.9491279,20.360625 26.0559302,20.430625 C26.1678488,20.151875 26.2656977,19.8625 26.3488372,19.5625 C27.244186,16.375 26.2209302,12.75 23.9825581,9.75 C29.1627907,12.8125 32.2325581,18.5625 30.9534884,23.375 C30.919593,23.505 30.8837791,23.633125 30.8447674,23.75875 C30.8594767,23.776875 30.874186,23.794375 30.8895349,23.8125 C33.4476744,26.9375 32.744186,30.25 32.4244186,29.625 C31.0366279,26.971875 28.4676163,27.783125 27.1623256,28.32125 L27.1623256,28.32125 Z"/>
      </g>
    </g>
  </g>
</svg>
